<svg width="135px" height="87px" viewBox="0 0 135 87" version="1.1" xmlns="http://www.w3.org/2000/svg" xmlns:xlink="http://www.w3.org/1999/xlink">
    <defs>
        <polygon id="path-1" points="0 86 519.668726 86 519.668726 0.667 0 0.667"></polygon>
    </defs>
    <g id="nm-lg_white" stroke="none" stroke-width="1" fill="none" fill-rule="evenodd">
        <g id="Group-49">
            <polygon id="Fill-1" fill="#FFFFFF" points="84.1678224 42.1894 67.537861 16.4454 65.2621081 16.4454 57.3105251 16.4454 55.8147722 16.4454 55.8147722 54.0884 26.5361622 16.4454 17.6359305 16.4454 17.6359305 70.8874 27.0832664 70.8874 27.0832664 32.1564 57.2201776 70.8874 57.3105251 70.8874 65.2621081 70.8874 66.7568571 70.8874 66.7568571 32.0004 83.8556216 57.5104 84.1678224 57.5104 101.422185 31.8454 101.422185 70.8874 111.02512 70.8874 111.02512 16.4454 100.797784 16.4454"></polygon>
            <path d="M0,86.333 L128.660849,86.333 L128.660849,1 L0,1 L0,86.333 Z M5.01830116,81.333 L123.641544,81.333 L123.641544,6 L5.01830116,6 L5.01830116,81.333 Z" id="Fill-2" fill="#FFFFFF"></path>
        </g>
    </g>
</svg>
