<svg width="520px" height="87px" viewBox="0 0 520 87" version="1.1" xmlns="http://www.w3.org/2000/svg" xmlns:xlink="http://www.w3.org/1999/xlink">
    <defs>
        <polygon id="path-1" points="0 86 519.668726 86 519.668726 0.667 0 0.667"></polygon>
    </defs>
    <g id="nm-lg_white" stroke="none" stroke-width="1" fill="none" fill-rule="evenodd">
        <g id="Group-49">
            <polygon id="Fill-1" fill="#FFFFFF" points="84.1678224 42.1894 67.537861 16.4454 65.2621081 16.4454 57.3105251 16.4454 55.8147722 16.4454 55.8147722 54.0884 26.5361622 16.4454 17.6359305 16.4454 17.6359305 70.8874 27.0832664 70.8874 27.0832664 32.1564 57.2201776 70.8874 57.3105251 70.8874 65.2621081 70.8874 66.7568571 70.8874 66.7568571 32.0004 83.8556216 57.5104 84.1678224 57.5104 101.422185 31.8454 101.422185 70.8874 111.02512 70.8874 111.02512 16.4454 100.797784 16.4454"></polygon>
            <path d="M0,86.333 L128.660849,86.333 L128.660849,1 L0,1 L0,86.333 Z M5.01830116,81.333 L123.641544,81.333 L123.641544,6 L5.01830116,6 L5.01830116,81.333 Z" id="Fill-2" fill="#FFFFFF"></path>
             <g id="Group-48" transform="translate(0.000000, 10.333000)">
                <polygon id="Fill-3" fill="#FFFFFF" points="175.664734 40.5439 158.773768 18.8299 153.641027 18.8299 153.641027 50.2339 159.090988 50.2339 159.090988 27.8919 176.474849 50.2339 181.112687 50.2339 181.112687 18.8299 175.664734 18.8299"></polygon>
                <path d="M191.557459,36.3974 C192.052363,32.7174 194.395375,30.1614 197.728193,30.1614 C201.33105,30.1614 203.404023,32.8984 203.763405,36.3974 L191.557459,36.3974 Z M197.772363,25.7194 C190.973212,25.7194 186.15468,31.2824 186.15468,38.1014 C186.15468,45.4604 191.468116,50.4394 198.359622,50.4394 C202.727421,50.4394 205.836378,48.6904 208.087035,45.9984 L204.889737,43.1724 C202.997459,45.0114 201.106185,45.9984 198.448965,45.9984 C194.935452,45.9984 192.233058,43.8444 191.604641,39.9864 L209.077846,39.9864 C209.122015,39.4494 209.169197,39.0004 209.169197,38.5064 C209.169197,31.6414 205.340471,25.7194 197.772363,25.7194 L197.772363,25.7194 Z" id="Fill-4" fill="#FFFFFF"></path>
                <path d="M227.40383,31.5068 L227.40383,25.7638 C223.216726,25.5858 220.468154,28.0078 218.98244,31.5528 L218.98244,26.2138 L213.531475,26.2138 L213.531475,49.9018 L218.98244,49.9018 L218.98244,40.8848 C218.98244,34.6028 222.315259,31.5068 227.089622,31.5068 L227.40383,31.5068 Z" id="Fill-6" fill="#FFFFFF"></path>
                <mask id="mask-2" fill="white">
                    <use xlink:href="#path-1"></use>
                </mask>
                <g id="Clip-9"></g>
                <polygon id="Fill-8" fill="#FFFFFF" mask="url(#mask-2)" points="231.321699 49.901 236.769653 49.901 236.769653 26.213 231.321699 26.213"></polygon>
                <polygon id="Fill-10" fill="#FFFFFF" mask="url(#mask-2)" points="231.09583 22.58 236.949344 22.58 236.949344 17.419 231.09583 17.419"></polygon>
                <path d="M243.076409,49.9013 C243.076409,51.9643 242.038417,52.7733 240.508533,52.7733 C240.013629,52.7733 239.517722,52.7283 238.975637,52.6383 L238.975637,56.9903 C239.832934,57.1243 240.552703,57.2143 241.588687,57.2143 C246.047838,57.2143 248.524363,55.0163 248.524363,50.2153 L248.524363,26.2133 L243.076409,26.2133 L243.076409,49.9013 Z" id="Fill-11" fill="#FFFFFF" mask="url(#mask-2)"></path>
                <polygon id="Fill-12" fill="#FFFFFF" mask="url(#mask-2)" points="242.851042 22.58 248.70556 22.58 248.70556 17.419 242.851042 17.419"></polygon>
                <path d="M270.139498,46.2226 L270.139498,49.9016 L275.590463,49.9016 L275.590463,26.2136 L270.139498,26.2136 L270.139498,39.5826 C270.139498,43.2606 267.934015,45.4596 264.780888,45.4596 C261.540425,45.4596 259.692317,43.3516 259.692317,39.6716 L259.692317,26.2136 L254.241351,26.2136 L254.241351,41.2876 C254.241351,46.8056 257.350309,50.3956 262.708919,50.3956 C266.403127,50.3956 268.609614,48.4656 270.139498,46.2226" id="Fill-13" fill="#FFFFFF" mask="url(#mask-2)"></path>
                <path d="M290.90095,35.9042 C288.110216,35.0072 285.54234,34.2892 285.54234,32.5832 L285.54234,32.4932 C285.54234,31.1032 286.758015,30.1172 288.875158,30.1172 C290.85678,30.1172 293.288131,30.9692 295.585969,32.3592 L297.748286,28.5012 C295.224579,26.8412 291.983112,25.8102 289.008672,25.8102 C284.28149,25.8102 280.543112,28.5472 280.543112,33.0322 L280.543112,33.1222 C280.543112,37.6542 284.460178,39.0902 287.973691,40.0762 C290.767436,40.9282 293.288131,41.5562 293.288131,43.3962 L293.288131,43.4852 C293.288131,45.0562 291.938942,46.0442 289.595931,46.0442 C287.163575,46.0442 284.370834,45.0562 281.802958,43.1272 L279.371606,46.8052 C282.346046,49.1392 286.081413,50.3502 289.459405,50.3502 C294.415467,50.3502 298.287359,47.8832 298.287359,42.9032 L298.287359,42.8132 C298.287359,38.5502 294.370293,36.9802 290.90095,35.9042" id="Fill-14" fill="#FFFFFF" mask="url(#mask-2)"></path>
                <polygon id="Fill-15" fill="#FFFFFF" mask="url(#mask-2)" points="346.69956 49.9013 346.69956 18.4973 340.797861 18.4973 331.204965 33.3473 321.612069 18.4973 315.713382 18.4973 315.713382 49.9013 321.164347 49.9013 321.164347 27.4683 331.027282 42.1853 331.204965 42.1853 341.159251 27.3803 341.159251 49.9013"></polygon>
                <path d="M361.420278,46.3124 C358.852402,46.3124 356.82661,45.0564 356.82661,42.8134 L356.82661,42.7234 C356.82661,40.3004 358.852402,38.9104 362.277575,38.9104 C364.394718,38.9104 366.331166,39.3144 367.724525,39.8524 L367.724525,41.3324 C367.724525,44.2934 365.023135,46.3124 361.420278,46.3124 L361.420278,46.3124 Z M372.994795,49.9014 L372.994795,35.8594 C372.994795,29.5334 369.572633,25.8544 362.54661,25.8544 C358.674718,25.8544 356.105838,26.6624 353.493792,27.8294 L354.979506,32.1804 C357.140819,31.2824 359.125452,30.7004 361.781668,30.7004 C365.563212,30.7004 367.635181,32.4934 367.635181,35.7694 L367.635181,36.3524 C365.789081,35.7694 363.943985,35.3654 361.0619,35.3654 C355.521591,35.3654 351.42383,37.8784 351.42383,42.9924 L351.42383,43.0824 C351.42383,47.8374 355.385066,50.3954 359.890394,50.3954 C363.492247,50.3954 365.968772,48.9154 367.591012,46.9864 L367.591012,49.9014 L372.994795,49.9014 Z" id="Fill-16" fill="#FFFFFF" mask="url(#mask-2)"></path>
                <path d="M387.9461,35.9042 C385.156371,35.0072 382.58749,34.2892 382.58749,32.5832 L382.58749,32.4932 C382.58749,31.1032 383.80417,30.1172 385.920309,30.1172 C387.901931,30.1172 390.333282,30.9692 392.632124,32.3592 L394.793436,28.5012 C392.270734,26.8412 389.028263,25.8102 386.054826,25.8102 C381.327645,25.8102 377.588263,28.5472 377.588263,33.0322 L377.588263,33.1222 C377.588263,37.6542 381.505328,39.0902 385.019846,40.0762 C387.812587,40.9282 390.333282,41.5562 390.333282,43.3962 L390.333282,43.4852 C390.333282,45.0562 388.984093,46.0442 386.641081,46.0442 C384.20973,46.0442 381.415985,45.0562 378.848108,43.1272 L376.416757,46.8052 C379.391197,49.1392 383.127568,50.3502 386.504556,50.3502 C391.460618,50.3502 395.33251,47.8832 395.33251,42.9032 L395.33251,42.8132 C395.33251,38.5502 391.415444,36.9802 387.9461,35.9042" id="Fill-17" fill="#FFFFFF" mask="url(#mask-2)"></path>
                <polygon id="Fill-18" fill="#FFFFFF" mask="url(#mask-2)" points="399.834826 22.58 405.689344 22.58 405.689344 17.419 399.834826 17.419"></polygon>
                <polygon id="Fill-19" fill="#FFFFFF" mask="url(#mask-2)" points="400.059691 49.901 405.507645 49.901 405.507645 26.213 400.059691 26.213"></polygon>
                <polygon id="Fill-20" fill="#FFFFFF" mask="url(#mask-2)" points="433.745251 49.9013 423.97166 35.8593 433.431042 26.2133 426.809575 26.2133 416.946641 36.7123 416.946641 17.1503 411.495676 17.1503 411.495676 49.9013 416.946641 49.9013 416.946641 43.1273 420.279459 39.6723 427.441004 49.9013"></polygon>
                <path d="M439.598865,38.0576 C439.598865,33.8846 442.389598,30.4756 446.758402,30.4756 C451.037861,30.4756 454.055467,33.9296 454.055467,38.1476 C454.055467,42.3206 451.262726,45.7296 446.849753,45.7296 C442.615467,45.7296 439.598865,42.2746 439.598865,38.0576 M459.503421,38.0576 C459.503421,31.2386 454.144811,25.7196 446.849753,25.7196 C439.551683,25.7196 434.148903,31.3286 434.148903,38.1476 C434.148903,44.9206 439.507514,50.4396 446.758402,50.4396 C454.099637,50.4396 459.503421,44.8326 459.503421,38.0576" id="Fill-21" fill="#FFFFFF" mask="url(#mask-2)"></path>
                <path d="M485.264703,49.9013 L485.264703,34.8273 C485.264703,29.3093 482.156749,25.7193 476.798139,25.7193 C473.103931,25.7193 470.89644,27.6493 469.366556,29.8923 L469.366556,26.2133 L463.915591,26.2133 L463.915591,49.9013 L469.366556,49.9013 L469.366556,36.5323 C469.366556,32.8543 471.573042,30.6543 474.725166,30.6543 C477.968641,30.6543 479.813737,32.7633 479.813737,36.4433 L479.813737,49.9013 L485.264703,49.9013 Z" id="Fill-22" fill="#FFFFFF" mask="url(#mask-2)"></path>
                <polygon id="Fill-23" fill="#FFFFFF" mask="url(#mask-2)" points="491.027568 49.901 496.475521 49.901 496.475521 26.213 491.027568 26.213"></polygon>
                <polygon id="Fill-24" fill="#FFFFFF" mask="url(#mask-2)" points="490.801699 22.58 496.655212 22.58 496.655212 17.419 490.801699 17.419"></polygon>
                <path d="M512.055243,35.9042 C509.26451,35.0072 506.696633,34.2892 506.696633,32.5832 L506.696633,32.4932 C506.696633,31.1032 507.912309,30.1172 510.029452,30.1172 C512.010069,30.1172 514.442425,30.9692 516.740263,32.3592 L518.901575,28.5012 C516.378873,26.8412 513.137405,25.8102 510.162965,25.8102 C505.435784,25.8102 501.697405,28.5472 501.697405,33.0322 L501.697405,33.1222 C501.697405,37.6542 505.614471,39.0902 509.127985,40.0762 C511.92173,40.9282 514.442425,41.5562 514.442425,43.3962 L514.442425,43.4852 C514.442425,45.0562 513.090224,46.0442 510.750224,46.0442 C508.317869,46.0442 505.525127,45.0562 502.957251,43.1272 L500.5259,46.8052 C503.50034,49.1392 507.235707,50.3502 510.613699,50.3502 C515.568757,50.3502 519.441653,47.8832 519.441653,42.9032 L519.441653,42.8132 C519.441653,38.5502 515.524587,36.9802 512.055243,35.9042" id="Fill-25" fill="#FFFFFF" mask="url(#mask-2)"></path>
            </g>
        </g>
    </g>
</svg>
