<?xml version="1.0" encoding="utf-8"?>
<!-- Generator: Adobe Illustrator 23.1.1, SVG Export Plug-In . SVG Version: 6.00 Build 0)  -->
<svg version="1.1" id="Layer_1" xmlns="http://www.w3.org/2000/svg" xmlns:xlink="http://www.w3.org/1999/xlink" x="0px" y="0px"
	 viewBox="0 0 540.3 85.3" style="enable-background:new 0 0 540.3 85.3;" xml:space="preserve">
<style type="text/css">
	.st0{fill:#FFFFFF;}
</style>
<g>
	<polygon class="st0" points="83.8,41 67.3,15.3 65,15.3 57.1,15.3 55.6,15.3 55.6,52.9 26.4,15.3 17.6,15.3 17.6,69.7 27,69.7 
		27,31 57,69.7 57.1,69.7 65,69.7 66.5,69.7 66.5,30.8 83.5,56.3 83.8,56.3 101,30.7 101,69.7 110.6,69.7 110.6,15.3 100.4,15.3 	
		"/>
	<path class="st0" d="M0,85.3h128.2V0H0V85.3z M5,5h118.2v75.3H5V5z"/>
	<g>
		<polygon class="st0" points="175,39.2 158.2,17.4 153,17.4 153,48.9 158.5,48.9 158.5,26.5 175.8,48.9 180.4,48.9 180.4,17.4 
			175,17.4 		"/>
		<path class="st0" d="M197,24.7c-6.8,0-11.6,5.6-11.6,12.4c0,7.4,5.3,12.3,12.2,12.3c4.4,0,7.4-1.7,9.7-4.4l-3.2-2.8
			c-1.9,1.8-3.8,2.8-6.4,2.8c-3.5,0-6.2-2.2-6.8-6h17.4c0-0.5,0.1-1,0.1-1.5C208.4,30.6,204.6,24.7,197,24.7z M190.8,35.3
			c0.5-3.7,2.8-6.2,6.1-6.2c3.6,0,5.7,2.7,6,6.2H190.8z"/>
		<path class="st0" d="M226.5,30.5v-5.7c-4.2-0.2-6.9,2.2-8.4,5.8v-5.3h-5.4v23.7h5.4v-9c0-6.3,3.3-9.4,8.1-9.4H226.5z"/>
		<rect x="230.4" y="25.2" class="st0" width="5.4" height="23.7"/>
		<rect x="230.2" y="16.4" class="st0" width="5.8" height="5.2"/>
		<path class="st0" d="M242.1,48.9c0,2.1-1,2.9-2.6,2.9c-0.5,0-1,0-1.5-0.1v4.4c0.9,0.1,1.6,0.2,2.6,0.2c4.4,0,6.9-2.2,6.9-7v-24
			h-5.4V48.9z"/>
		<rect x="241.9" y="16.4" class="st0" width="5.8" height="5.2"/>
		<path class="st0" d="M269.1,45.2v3.7h5.4V25.2h-5.4v13.4c0,3.7-2.2,5.9-5.3,5.9c-3.2,0-5.1-2.1-5.1-5.8V25.2h-5.4v15.1
			c0,5.5,3.1,9.1,8.4,9.1C265.4,49.3,267.6,47.4,269.1,45.2z"/>
		<path class="st0" d="M289.8,34.9c-2.8-0.9-5.3-1.6-5.3-3.3v-0.1c0-1.4,1.2-2.4,3.3-2.4c2,0,4.4,0.9,6.7,2.2l2.2-3.9
			c-2.5-1.7-5.7-2.7-8.7-2.7c-4.7,0-8.4,2.7-8.4,7.2v0.1c0,4.5,3.9,6,7.4,7c2.8,0.9,5.3,1.5,5.3,3.3v0.1c0,1.6-1.3,2.6-3.7,2.6
			c-2.4,0-5.2-1-7.8-2.9l-2.4,3.7c3,2.3,6.7,3.5,10,3.5c4.9,0,8.8-2.5,8.8-7.4v-0.1C297.1,37.5,293.2,35.9,289.8,34.9z"/>
		<polygon class="st0" points="345.4,48.9 345.4,17.4 339.5,17.4 329.9,32.3 320.4,17.4 314.5,17.4 314.5,48.9 319.9,48.9 
			319.9,26.4 329.8,41.1 329.9,41.1 339.8,26.3 339.8,48.9 		"/>
		<path class="st0" d="M371.6,48.9v-14c0-6.3-3.4-10-10.4-10c-3.9,0-6.4,0.8-9,2l1.5,4.4c2.2-0.9,4.1-1.5,6.8-1.5
			c3.8,0,5.8,1.8,5.8,5.1v0.6c-1.8-0.6-3.7-1-6.5-1c-5.5,0-9.6,2.5-9.6,7.6V42c0,4.8,3.9,7.3,8.4,7.3c3.6,0,6.1-1.5,7.7-3.4v2.9
			H371.6z M360,45.3c-2.6,0-4.6-1.3-4.6-3.5v-0.1c0-2.4,2-3.8,5.4-3.8c2.1,0,4,0.4,5.4,0.9v1.5C366.3,43.2,363.6,45.3,360,45.3z"/>
		<path class="st0" d="M386.5,34.9c-2.8-0.9-5.3-1.6-5.3-3.3v-0.1c0-1.4,1.2-2.4,3.3-2.4c2,0,4.4,0.9,6.7,2.2l2.2-3.9
			c-2.5-1.7-5.7-2.7-8.7-2.7c-4.7,0-8.4,2.7-8.4,7.2v0.1c0,4.5,3.9,6,7.4,7c2.8,0.9,5.3,1.5,5.3,3.3v0.1c0,1.6-1.3,2.6-3.7,2.6
			c-2.4,0-5.2-1-7.8-2.9l-2.4,3.7c3,2.3,6.7,3.5,10,3.5c4.9,0,8.8-2.5,8.8-7.4v-0.1C393.8,37.5,389.9,35.9,386.5,34.9z"/>
		<rect x="398.3" y="16.4" class="st0" width="5.8" height="5.2"/>
		<rect x="398.5" y="25.2" class="st0" width="5.4" height="23.7"/>
		<polygon class="st0" points="432.1,48.9 422.3,34.8 431.8,25.2 425.2,25.2 415.3,35.7 415.3,16.1 409.9,16.1 409.9,48.9 
			415.3,48.9 415.3,42.1 418.7,38.6 425.8,48.9 		"/>
		<path class="st0" d="M457.7,37c0-6.8-5.3-12.3-12.6-12.3c-7.3,0-12.7,5.6-12.7,12.4c0,6.8,5.3,12.3,12.6,12.3
			C452.4,49.4,457.7,43.8,457.7,37z M437.9,37c0-4.2,2.8-7.6,7.1-7.6c4.3,0,7.3,3.5,7.3,7.7c0,4.2-2.8,7.6-7.2,7.6
			C440.9,44.7,437.9,41.2,437.9,37z"/>
		<path class="st0" d="M483.4,48.9V33.8c0-5.5-3.1-9.1-8.4-9.1c-3.7,0-5.9,1.9-7.4,4.2v-3.7h-5.4v23.7h5.4V35.5
			c0-3.7,2.2-5.9,5.3-5.9c3.2,0,5.1,2.1,5.1,5.8v13.5H483.4z"/>
		<rect x="489.1" y="25.2" class="st0" width="5.4" height="23.7"/>
		<rect x="488.9" y="16.4" class="st0" width="5.8" height="5.2"/>
		<path class="st0" d="M510.1,34.9c-2.8-0.9-5.3-1.6-5.3-3.3v-0.1c0-1.4,1.2-2.4,3.3-2.4c2,0,4.4,0.9,6.7,2.2l2.2-3.9
			c-2.5-1.7-5.7-2.7-8.7-2.7c-4.7,0-8.4,2.7-8.4,7.2v0.1c0,4.5,3.9,6,7.4,7c2.8,0.9,5.3,1.5,5.3,3.3v0.1c0,1.6-1.3,2.6-3.7,2.6
			c-2.4,0-5.2-1-7.8-2.9l-2.4,3.7c3,2.3,6.7,3.5,10,3.5c4.9,0,8.8-2.5,8.8-7.4v-0.1C517.4,37.5,513.5,35.9,510.1,34.9z"/>
		<g>
			<path class="st0" d="M156.9,69.2c-0.8,0-1.5-0.2-2.1-0.6s-1.1-1-1.5-1.7c-0.4-0.7-0.5-1.6-0.5-2.5c0-0.8,0.1-1.4,0.3-2.1
				c0.2-0.6,0.5-1.1,0.9-1.5c0.4-0.4,0.9-0.8,1.4-1c0.5-0.2,1.1-0.3,1.8-0.3c0.9,0,1.6,0.2,2.2,0.6c0.6,0.4,1.1,1,1.4,1.8l-1.7,0.4
				c-0.2-0.4-0.5-0.7-0.8-0.9s-0.7-0.3-1.1-0.3c-0.5,0-0.9,0.1-1.3,0.4s-0.7,0.7-0.9,1.2c-0.2,0.5-0.3,1.1-0.3,1.8
				c0,0.7,0.1,1.2,0.3,1.7c0.2,0.5,0.5,0.9,0.8,1.1c0.4,0.3,0.8,0.4,1.3,0.4c0.4,0,0.8-0.1,1.1-0.3c0.3-0.2,0.6-0.4,0.8-0.8
				c0.2-0.3,0.3-0.7,0.3-1.2h0.4c0,0.8-0.1,1.5-0.3,2c-0.2,0.6-0.5,1-0.9,1.3C158,69.1,157.5,69.2,156.9,69.2z M159.4,69l-0.2-2.1
				v-1.6l-2.1,0v-1.1h3.7V69H159.4z"/>
			<path class="st0" d="M169.4,69v-9.3h3.5c1.1,0,2,0.3,2.6,0.8s0.9,1.2,0.9,2.1c0,0.8-0.3,1.5-0.9,2.1c-0.6,0.5-1.5,0.8-2.6,0.8
				h-1.8V69H169.4z M171.1,64.2h1.6c0.6,0,1.1-0.1,1.4-0.4c0.3-0.3,0.5-0.7,0.5-1.1c0-0.5-0.1-0.8-0.4-1.1s-0.7-0.4-1.3-0.4h-1.8
				V64.2z M174.4,69l-2.5-4.4h1.8l2.9,4.4H174.4z"/>
			<path class="st0" d="M188.3,69.2c-0.8,0-1.6-0.2-2.2-0.5s-1.1-0.9-1.5-1.6c-0.4-0.7-0.5-1.6-0.5-2.7c0-1.1,0.2-2,0.5-2.7
				c0.4-0.7,0.9-1.3,1.5-1.6c0.6-0.4,1.4-0.5,2.2-0.5c0.8,0,1.6,0.2,2.2,0.5c0.6,0.4,1.1,0.9,1.5,1.6c0.4,0.7,0.5,1.6,0.5,2.7
				c0,1.1-0.2,2-0.5,2.7c-0.4,0.7-0.9,1.3-1.5,1.6S189.2,69.2,188.3,69.2z M188.3,67.7c0.8,0,1.4-0.3,1.8-0.9
				c0.4-0.6,0.7-1.4,0.7-2.5c0-1-0.2-1.9-0.7-2.4c-0.4-0.6-1.1-0.9-1.8-0.9c-0.7,0-1.3,0.3-1.8,0.9c-0.5,0.6-0.7,1.4-0.7,2.5
				c0,1.1,0.2,1.9,0.7,2.5C187,67.4,187.6,67.7,188.3,67.7z"/>
			<path class="st0" d="M199.5,59.7h1.9l2.3,7.9h-0.4l2.2-7.2h1.2l2.3,7.1h-0.4l2.4-7.7h1.9l-3.2,9.3h-1.8l-1.8-5.5h0.2l-1.8,5.5
				h-1.8L199.5,59.7z"/>
			<path class="st0" d="M219.2,61.1v-1.5h7.5v1.5h-3.3l0.4-0.4V69h-1.7v-8.3l0.4,0.4H219.2z"/>
			<path class="st0" d="M234.3,59.7h1.7v3.9h4.1v-3.9h1.7V69H240v-4H236v4h-1.7V59.7z"/>
			<path class="st0" d="M260.3,59.7h2.4l2.6,5.7h-0.1l2.6-5.7h2.3V69h-1.7v-7.4h0.3l-2.9,6.4h-1.1l-2.9-6.3h0.2V69h-1.7V59.7z"/>
			<path class="st0" d="M278,69l3.2-9.3h2.1l3.1,9.3h-1.8l-0.6-2h-3.5l-0.7,2H278z M280.9,65.7h2.6l-1.3-4L280.9,65.7z"/>
			<path class="st0" d="M294.2,69v-9.3h3.5c1.1,0,2,0.3,2.6,0.8s0.9,1.2,0.9,2.1c0,0.8-0.3,1.5-0.9,2.1c-0.6,0.5-1.5,0.8-2.6,0.8
				h-1.8V69H294.2z M295.9,64.2h1.6c0.6,0,1.1-0.1,1.4-0.4c0.3-0.3,0.5-0.7,0.5-1.1c0-0.5-0.1-0.8-0.4-1.1s-0.7-0.4-1.3-0.4h-1.8
				V64.2z M299.2,69l-2.5-4.4h1.8l2.9,4.4H299.2z"/>
			<path class="st0" d="M309.6,59.7h1.7V69h-1.7V59.7z M315,59.7h2.3l-6.2,6.3v-2.3L315,59.7z M312.9,63.5l4.7,5.5h-2.2l-3.7-4.4
				L312.9,63.5z"/>
			<path class="st0" d="M325.1,69v-9.3h6v1.5h-4.3v2.5h4v1.5h-4v2.5h4.3V69H325.1z"/>
			<path class="st0" d="M338.4,61.1v-1.5h7.5v1.5h-3.3l0.4-0.4V69h-1.7v-8.3l0.4,0.4H338.4z"/>
			<path class="st0" d="M353.4,69v-9.3h1.7V69H353.4z"/>
			<path class="st0" d="M363.9,59.7h1.9l4.2,6.7h-0.1v-6.7h1.7V69h-1.7l-4.5-7.1h0.3V69h-1.7V59.7z"/>
			<path class="st0" d="M383.8,69.2c-0.8,0-1.5-0.2-2.1-0.6s-1.1-1-1.5-1.7s-0.5-1.6-0.5-2.5c0-0.8,0.1-1.4,0.3-2.1
				c0.2-0.6,0.5-1.1,0.9-1.5c0.4-0.4,0.9-0.8,1.4-1c0.5-0.2,1.1-0.3,1.8-0.3c0.9,0,1.6,0.2,2.2,0.6c0.6,0.4,1.1,1,1.4,1.8l-1.7,0.4
				c-0.2-0.4-0.5-0.7-0.8-0.9s-0.7-0.3-1.1-0.3c-0.5,0-0.9,0.1-1.3,0.4c-0.4,0.3-0.7,0.7-0.9,1.2s-0.3,1.1-0.3,1.8
				c0,0.7,0.1,1.2,0.3,1.7c0.2,0.5,0.5,0.9,0.8,1.1s0.8,0.4,1.3,0.4c0.4,0,0.8-0.1,1.1-0.3c0.3-0.2,0.6-0.4,0.8-0.8s0.3-0.7,0.3-1.2
				h0.4c0,0.8-0.1,1.5-0.3,2c-0.2,0.6-0.5,1-0.9,1.3C384.9,69.1,384.4,69.2,383.8,69.2z M386.3,69l-0.2-2.1v-1.6l-2.1,0v-1.1h3.7V69
				H386.3z"/>
			<path class="st0" d="M406,69v-9.3h6v1.5h-4.3v2.5h4v1.5h-4v2.5h4.3V69H406z"/>
			<path class="st0" d="M420.6,59.7h1.9l4.2,6.7h-0.1v-6.7h1.7V69h-1.7L422,62h0.3V69h-1.7V59.7z"/>
			<path class="st0" d="M440.5,69.2c-0.8,0-1.5-0.2-2.1-0.6s-1.1-1-1.5-1.7s-0.5-1.6-0.5-2.5c0-0.8,0.1-1.4,0.3-2.1
				c0.2-0.6,0.5-1.1,0.9-1.5c0.4-0.4,0.9-0.8,1.4-1c0.5-0.2,1.1-0.3,1.8-0.3c0.9,0,1.6,0.2,2.2,0.6c0.6,0.4,1.1,1,1.4,1.8l-1.7,0.4
				c-0.2-0.4-0.5-0.7-0.8-0.9s-0.7-0.3-1.1-0.3c-0.5,0-0.9,0.1-1.3,0.4c-0.4,0.3-0.7,0.7-0.9,1.2s-0.3,1.1-0.3,1.8
				c0,0.7,0.1,1.2,0.3,1.7c0.2,0.5,0.5,0.9,0.8,1.1s0.8,0.4,1.3,0.4c0.4,0,0.8-0.1,1.1-0.3c0.3-0.2,0.6-0.4,0.8-0.8s0.3-0.7,0.3-1.2
				h0.4c0,0.8-0.1,1.5-0.3,2c-0.2,0.6-0.5,1-0.9,1.3C441.6,69.1,441.1,69.2,440.5,69.2z M443,69l-0.2-2.1v-1.6l-2.1,0v-1.1h3.7V69
				H443z"/>
			<path class="st0" d="M452.9,69v-9.3h1.7V69H452.9z"/>
			<path class="st0" d="M463.4,59.7h1.9l4.2,6.7h-0.1v-6.7h1.7V69h-1.7l-4.5-7.1h0.3V69h-1.7V59.7z"/>
			<path class="st0" d="M479.9,69v-9.3h6v1.5h-4.3v2.5h4v1.5h-4v2.5h4.3V69H479.9z"/>
			<path class="st0" d="M494.5,69v-9.3h6v1.5h-4.3v2.5h4v1.5h-4v2.5h4.3V69H494.5z"/>
			<path class="st0" d="M509,69v-9.3h3.5c1.1,0,2,0.3,2.6,0.8s0.9,1.2,0.9,2.1c0,0.8-0.3,1.5-0.9,2.1c-0.6,0.5-1.5,0.8-2.6,0.8h-1.8
				V69H509z M510.7,64.2h1.6c0.6,0,1.1-0.1,1.4-0.4c0.3-0.3,0.5-0.7,0.5-1.1c0-0.5-0.1-0.8-0.4-1.1s-0.7-0.4-1.3-0.4h-1.8V64.2z
				 M514.1,69l-2.5-4.4h1.8l2.9,4.4H514.1z"/>
		</g>
	</g>
</g>
</svg>
