<svg 
 xmlns="http://www.w3.org/2000/svg"
 xmlns:xlink="http://www.w3.org/1999/xlink"
 width="55px" height="55px">
<path fill-rule="evenodd"  stroke="rgb(255, 255, 255)" stroke-width="2px" stroke-linecap="butt" stroke-linejoin="miter" fill="none"
 d="M26.999,0.999 C41.359,0.999 52.999,12.640 52.999,26.999 C52.999,41.359 41.359,52.999 26.999,52.999 C12.640,52.999 0.999,41.359 0.999,26.999 C0.999,12.640 12.640,0.999 26.999,0.999 Z"/>
<path fill-rule="evenodd"  fill="rgb(255, 255, 255)"
 d="M40.124,39.508 L13.874,39.508 C13.391,39.508 12.999,39.111 12.999,38.622 L12.999,18.262 C12.999,17.773 13.391,17.377 13.874,17.377 L21.838,17.377 C22.257,14.870 24.404,12.950 26.999,12.950 C29.595,12.950 31.741,14.870 32.161,17.377 L40.124,17.377 C40.608,17.377 40.999,17.773 40.999,18.262 L40.999,38.622 C40.999,39.111 40.608,39.508 40.124,39.508 ZM26.999,14.721 C25.373,14.721 24.15,15.854 23.624,17.377 L30.375,17.377 C29.984,15.854 28.626,14.721 26.999,14.721 ZM39.249,19.147 L14.749,19.147 L14.749,24.458 L39.249,24.458 L39.249,19.147 ZM25.518,26.229 C25.824,26.748 26.360,27.114 26.999,27.114 C27.639,27.114 28.175,26.748 28.480,26.229 L25.518,26.229 ZM39.249,26.229 L30.375,26.229 C29.984,27.752 28.626,28.885 26.999,28.885 C25.373,28.885 24.15,27.752 23.624,26.229 L14.749,26.229 L14.749,37.737 L39.249,37.737 L39.249,26.229 Z"/>
</svg>