<svg 
 xmlns="http://www.w3.org/2000/svg"
 xmlns:xlink="http://www.w3.org/1999/xlink"
 width="55px" height="55px">
<path fill-rule="evenodd"  stroke="rgb(255, 255, 255)" stroke-width="2px" stroke-linecap="butt" stroke-linejoin="miter" fill="none"
 d="M26.999,0.999 C41.359,0.999 52.999,12.640 52.999,26.999 C52.999,41.359 41.359,52.999 26.999,52.999 C12.640,52.999 0.999,41.359 0.999,26.999 C0.999,12.640 12.640,0.999 26.999,0.999 Z"/>
<path fill-rule="evenodd"  fill="rgb(255, 255, 255)"
 d="M40.452,30.149 L38.346,30.500 C38.133,31.201 37.845,31.885 37.500,32.543 L38.741,34.285 C39.267,35.24 39.180,36.33 38.540,36.673 L36.673,38.540 C36.322,38.891 35.858,39.85 35.363,39.85 C34.974,39.85 34.598,38.966 34.285,38.741 L32.549,37.500 C31.897,37.844 31.214,38.126 30.506,38.346 L30.149,40.451 C29.998,41.348 29.228,41.999 28.319,41.999 L25.674,41.999 C24.765,41.999 23.995,41.348 23.844,40.451 L23.493,38.346 C22.810,38.133 22.146,37.863 21.513,37.531 L19.752,38.784 C19.438,39.10 19.69,39.129 18.680,39.129 C18.185,39.129 17.721,38.935 17.370,38.584 L15.503,36.716 C14.857,36.77 14.776,35.68 15.302,34.329 L16.537,32.612 C16.186,31.960 15.897,31.277 15.678,30.575 L13.547,30.211 C12.651,30.61 11.999,29.290 11.999,28.381 L11.999,25.743 C11.999,24.834 12.651,24.63 13.547,23.913 L15.628,23.562 C15.841,22.854 16.117,22.171 16.462,21.513 L15.208,19.752 C14.682,19.12 14.769,18.3 15.409,17.364 L17.283,15.496 C17.627,15.145 18.97,14.951 18.592,14.951 C18.981,14.951 19.357,15.70 19.670,15.296 L21.394,16.537 C22.46,16.186 22.729,15.898 23.430,15.678 L23.794,13.547 C23.944,12.651 24.715,11.999 25.624,11.999 L28.262,11.999 C29.171,11.999 29.942,12.651 30.92,13.547 L30.443,15.628 C31.177,15.847 31.885,16.142 32.562,16.499 L34.304,15.258 C34.617,15.33 34.987,14.914 35.376,14.914 C35.871,14.914 36.334,15.108 36.685,15.459 L38.553,17.326 C39.198,17.966 39.280,18.975 38.753,19.714 L37.513,21.450 C37.857,22.102 38.139,22.785 38.359,23.493 L40.464,23.850 C41.361,24.1 42.12,24.772 42.0,25.680 L42.0,28.319 C42.0,29.227 41.348,29.998 40.452,30.149 ZM40.327,25.680 C40.327,25.599 40.270,25.530 40.189,25.517 L37.556,25.72 C37.231,25.22 36.961,24.778 36.880,24.452 C36.641,23.531 36.278,22.647 35.789,21.826 C35.620,21.538 35.633,21.174 35.827,20.905 L37.375,18.730 C37.419,18.661 37.412,18.573 37.356,18.517 L35.488,16.650 C35.444,16.606 35.394,16.599 35.369,16.599 C35.338,16.599 35.307,16.612 35.275,16.631 L33.113,18.185 C32.837,18.379 32.480,18.392 32.192,18.223 C31.352,17.728 30.450,17.358 29.503,17.120 C29.177,17.38 28.933,16.769 28.877,16.436 L28.438,13.823 C28.425,13.742 28.356,13.685 28.275,13.685 L25.637,13.685 C25.555,13.685 25.486,13.742 25.474,13.823 L25.22,16.474 C24.966,16.800 24.722,17.63 24.402,17.151 C23.481,17.389 22.597,17.765 21.782,18.254 C21.494,18.423 21.131,18.411 20.855,18.216 L18.693,16.675 C18.668,16.656 18.636,16.643 18.599,16.643 C18.567,16.643 18.523,16.650 18.480,16.693 L16.612,18.561 C16.556,18.617 16.549,18.711 16.593,18.774 L18.154,20.967 C18.348,21.237 18.367,21.594 18.198,21.882 C17.715,22.703 17.358,23.593 17.126,24.515 C17.44,24.841 16.775,25.85 16.443,25.141 L13.829,25.580 C13.748,25.592 13.692,25.661 13.692,25.743 L13.692,28.381 C13.692,28.463 13.748,28.532 13.829,28.544 L16.480,28.995 C16.806,29.52 17.69,29.296 17.157,29.616 C17.395,30.537 17.771,31.421 18.260,32.235 C18.429,32.524 18.417,32.887 18.223,33.163 L16.681,35.325 C16.637,35.394 16.643,35.482 16.700,35.538 L18.567,37.406 C18.611,37.450 18.661,37.456 18.686,37.456 C18.718,37.456 18.749,37.443 18.780,37.424 L20.974,35.864 C21.118,35.758 21.293,35.707 21.463,35.707 C21.607,35.707 21.757,35.745 21.889,35.820 C22.697,36.284 23.562,36.641 24.458,36.873 C24.778,36.955 25.22,37.218 25.79,37.550 L25.517,40.182 C25.530,40.264 25.599,40.320 25.680,40.320 L28.319,40.320 C28.400,40.320 28.469,40.264 28.482,40.182 L28.927,37.550 C28.977,37.224 29.221,36.955 29.547,36.873 C30.468,36.635 31.352,36.271 32.173,35.783 C32.461,35.613 32.825,35.626 33.94,35.820 L35.269,37.368 C35.294,37.387 35.325,37.399 35.363,37.399 C35.394,37.399 35.438,37.393 35.482,37.349 L37.350,35.482 C37.406,35.425 37.412,35.331 37.368,35.269 L35.821,33.88 C35.626,32.812 35.614,32.455 35.783,32.167 C36.272,31.346 36.635,30.462 36.873,29.541 C36.955,29.221 37.218,28.977 37.550,28.920 L40.182,28.482 C40.264,28.469 40.320,28.400 40.320,28.319 L40.327,28.319 L40.327,25.680 ZM27.3,33.470 C23.430,33.470 20.529,30.568 20.529,26.996 C20.529,23.424 23.430,20.523 27.3,20.523 C30.575,20.523 33.477,23.424 33.477,26.996 C33.477,30.568 30.575,33.470 27.3,33.470 ZM27.3,22.215 C24.364,22.215 22.221,24.358 22.221,26.996 C22.221,29.635 24.364,31.778 27.3,31.778 C29.641,31.778 31.784,29.635 31.784,26.996 C31.784,24.358 29.641,22.215 27.3,22.215 Z"/>
</svg>