<svg 
 xmlns="http://www.w3.org/2000/svg"
 xmlns:xlink="http://www.w3.org/1999/xlink"
 width="55px" height="55px">
<path fill-rule="evenodd"  stroke="rgb(255, 255, 255)" stroke-width="2px" stroke-linecap="butt" stroke-linejoin="miter" fill="none"
 d="M26.999,0.999 C41.359,0.999 52.999,12.640 52.999,26.999 C52.999,41.359 41.359,52.999 26.999,52.999 C12.640,52.999 0.999,41.359 0.999,26.999 C0.999,12.640 12.640,0.999 26.999,0.999 Z"/>
<path fill-rule="evenodd"  fill="rgb(255, 255, 255)"
 d="M41.960,31.969 C41.851,32.308 41.541,32.524 41.207,32.524 C41.126,32.524 41.44,32.511 40.962,32.485 L39.603,32.36 C39.188,31.899 38.960,31.446 39.95,31.24 C39.230,30.602 39.677,30.371 40.92,30.508 L41.452,30.956 C41.867,31.94 42.95,31.547 41.960,31.969 ZM34.917,29.470 C34.824,29.563 34.781,29.696 34.803,29.826 L35.925,36.462 C36.53,37.221 35.751,37.974 35.138,38.427 C34.791,38.683 34.385,38.812 33.977,38.812 C33.662,38.813 33.346,38.736 33.54,38.580 L27.183,35.446 C27.68,35.385 26.930,35.385 26.815,35.446 L20.943,38.580 C20.272,38.938 19.474,38.879 18.860,38.427 C18.246,37.974 17.944,37.221 18.73,36.462 L19.194,29.826 C19.216,29.696 19.173,29.563 19.80,29.470 L14.330,24.770 C13.787,24.233 13.595,23.444 13.830,22.712 C14.64,21.979 14.676,21.456 15.427,21.345 L21.991,20.377 C22.120,20.358 22.231,20.276 22.289,20.157 L25.225,14.119 C25.560,13.428 26.240,12.999 26.999,12.999 C27.757,12.999 28.437,13.428 28.773,14.119 L31.708,20.157 C31.766,20.276 31.877,20.358 32.6,20.377 L38.571,21.345 C39.321,21.456 39.933,21.979 40.168,22.712 C40.402,23.444 40.210,24.233 39.667,24.770 L34.917,29.470 ZM38.662,23.208 C38.640,23.137 38.563,22.967 38.343,22.935 L31.779,21.967 C31.134,21.872 30.578,21.461 30.289,20.868 L27.354,14.830 L27.354,14.830 C27.255,14.628 27.73,14.606 26.999,14.606 C26.925,14.606 26.742,14.628 26.644,14.830 L23.708,20.868 C23.420,21.461 22.863,21.872 22.219,21.967 L15.655,22.935 C15.435,22.967 15.358,23.137 15.335,23.208 C15.312,23.280 15.276,23.463 15.435,23.620 L20.185,28.320 C20.652,28.782 20.864,29.446 20.754,30.98 L19.633,36.734 C19.595,36.956 19.730,37.83 19.790,37.127 C19.850,37.171 20.10,37.262 20.207,37.157 L26.78,34.24 C26.366,33.870 26.683,33.794 26.999,33.794 C27.315,33.794 27.631,33.870 27.919,34.24 L33.791,37.157 C33.987,37.262 34.148,37.171 34.207,37.127 C34.267,37.83 34.402,36.956 34.365,36.734 L33.243,30.98 C33.133,29.446 33.346,28.782 33.812,28.320 L38.562,23.620 C38.721,23.463 38.685,23.280 38.662,23.208 ZM35.579,16.414 C35.424,16.631 35.183,16.745 34.938,16.745 C34.777,16.745 34.614,16.695 34.473,16.592 C34.120,16.331 34.41,15.829 34.298,15.470 L35.138,14.296 C35.395,13.937 35.890,13.858 36.244,14.118 C36.597,14.379 36.676,14.882 36.419,15.241 L35.579,16.414 ZM19.56,16.741 C18.811,16.741 18.570,16.626 18.415,16.409 L17.575,15.236 C17.318,14.877 17.396,14.374 17.750,14.114 C18.104,13.853 18.599,13.933 18.855,14.291 L19.695,15.465 C19.952,15.824 19.874,16.326 19.520,16.587 C19.380,16.691 19.217,16.741 19.56,16.741 ZM14.902,31.23 C15.37,31.445 14.809,31.898 14.394,32.35 L13.35,32.483 C12.953,32.510 12.871,32.523 12.790,32.523 C12.456,32.523 12.146,32.307 12.37,31.968 C11.902,31.546 12.130,31.92 12.545,30.955 L13.905,30.507 C14.320,30.370 14.767,30.601 14.902,31.23 ZM26.999,39.942 C27.436,39.942 27.790,40.302 27.790,40.745 L27.790,42.196 C27.790,42.640 27.436,42.999 26.999,42.999 C26.562,42.999 26.208,42.640 26.208,42.196 L26.208,40.745 C26.208,40.302 26.562,39.942 26.999,39.942 Z"/>
</svg>