<svg width="520px" height="87px" viewBox="0 0 520 87" version="1.1" xmlns="http://www.w3.org/2000/svg" xmlns:xlink="http://www.w3.org/1999/xlink">
    <defs>
        <polygon id="path-1" points="0 86 519.668726 86 519.668726 0.667 0 0.667"></polygon>
    </defs>
    <g id="nm-lg_white" stroke="none" stroke-width="1" fill="none" fill-rule="evenodd">
        <g id="Group-49">
            <polygon id="Fill-1" fill="#FFFFFF" points="84.1678224 42.1894 67.537861 16.4454 65.2621081 16.4454 57.3105251 16.4454 55.8147722 16.4454 55.8147722 54.0884 26.5361622 16.4454 17.6359305 16.4454 17.6359305 70.8874 27.0832664 70.8874 27.0832664 32.1564 57.2201776 70.8874 57.3105251 70.8874 65.2621081 70.8874 66.7568571 70.8874 66.7568571 32.0004 83.8556216 57.5104 84.1678224 57.5104 101.422185 31.8454 101.422185 70.8874 111.02512 70.8874 111.02512 16.4454 100.797784 16.4454"></polygon>
            <path d="M0,86.333 L128.660849,86.333 L128.660849,1 L0,1 L0,86.333 Z M5.01830116,81.333 L123.641544,81.333 L123.641544,6 L5.01830116,6 L5.01830116,81.333 Z" id="Fill-2" fill="#FFFFFF"></path>
            <polygon id="Fill-3" fill="#FFFFFF" points="175.664734 40.5439 158.773768 18.8299 153.641027 18.8299 153.641027 50.2339 159.090988 50.2339 159.090988 27.8919 176.474849 50.2339 181.112687 50.2339 181.112687 18.8299 175.664734 18.8299"></polygon>
            <g id="Group-48" transform="translate(0.000000, 0.333000)">
                <path d="M191.557459,36.3974 C192.052363,32.7174 194.395375,30.1614 197.728193,30.1614 C201.33105,30.1614 203.404023,32.8984 203.763405,36.3974 L191.557459,36.3974 Z M197.772363,25.7194 C190.973212,25.7194 186.15468,31.2824 186.15468,38.1014 C186.15468,45.4604 191.468116,50.4394 198.359622,50.4394 C202.727421,50.4394 205.836378,48.6904 208.087035,45.9984 L204.889737,43.1724 C202.997459,45.0114 201.106185,45.9984 198.448965,45.9984 C194.935452,45.9984 192.233058,43.8444 191.604641,39.9864 L209.077846,39.9864 C209.122015,39.4494 209.169197,39.0004 209.169197,38.5064 C209.169197,31.6414 205.340471,25.7194 197.772363,25.7194 L197.772363,25.7194 Z" id="Fill-4" fill="#FFFFFF"></path>
                <path d="M227.40383,31.5068 L227.40383,25.7638 C223.216726,25.5858 220.468154,28.0078 218.98244,31.5528 L218.98244,26.2138 L213.531475,26.2138 L213.531475,49.9018 L218.98244,49.9018 L218.98244,40.8848 C218.98244,34.6028 222.315259,31.5068 227.089622,31.5068 L227.40383,31.5068 Z" id="Fill-6" fill="#FFFFFF"></path>
                <mask id="mask-2" fill="white">
                    <use xlink:href="#path-1"></use>
                </mask>
                <g id="Clip-9"></g>
                <polygon id="Fill-8" fill="#FFFFFF" mask="url(#mask-2)" points="231.321699 49.901 236.769653 49.901 236.769653 26.213 231.321699 26.213"></polygon>
                <polygon id="Fill-10" fill="#FFFFFF" mask="url(#mask-2)" points="231.09583 22.58 236.949344 22.58 236.949344 17.419 231.09583 17.419"></polygon>
                <path d="M243.076409,49.9013 C243.076409,51.9643 242.038417,52.7733 240.508533,52.7733 C240.013629,52.7733 239.517722,52.7283 238.975637,52.6383 L238.975637,56.9903 C239.832934,57.1243 240.552703,57.2143 241.588687,57.2143 C246.047838,57.2143 248.524363,55.0163 248.524363,50.2153 L248.524363,26.2133 L243.076409,26.2133 L243.076409,49.9013 Z" id="Fill-11" fill="#FFFFFF" mask="url(#mask-2)"></path>
                <polygon id="Fill-12" fill="#FFFFFF" mask="url(#mask-2)" points="242.851042 22.58 248.70556 22.58 248.70556 17.419 242.851042 17.419"></polygon>
                <path d="M270.139498,46.2226 L270.139498,49.9016 L275.590463,49.9016 L275.590463,26.2136 L270.139498,26.2136 L270.139498,39.5826 C270.139498,43.2606 267.934015,45.4596 264.780888,45.4596 C261.540425,45.4596 259.692317,43.3516 259.692317,39.6716 L259.692317,26.2136 L254.241351,26.2136 L254.241351,41.2876 C254.241351,46.8056 257.350309,50.3956 262.708919,50.3956 C266.403127,50.3956 268.609614,48.4656 270.139498,46.2226" id="Fill-13" fill="#FFFFFF" mask="url(#mask-2)"></path>
                <path d="M290.90095,35.9042 C288.110216,35.0072 285.54234,34.2892 285.54234,32.5832 L285.54234,32.4932 C285.54234,31.1032 286.758015,30.1172 288.875158,30.1172 C290.85678,30.1172 293.288131,30.9692 295.585969,32.3592 L297.748286,28.5012 C295.224579,26.8412 291.983112,25.8102 289.008672,25.8102 C284.28149,25.8102 280.543112,28.5472 280.543112,33.0322 L280.543112,33.1222 C280.543112,37.6542 284.460178,39.0902 287.973691,40.0762 C290.767436,40.9282 293.288131,41.5562 293.288131,43.3962 L293.288131,43.4852 C293.288131,45.0562 291.938942,46.0442 289.595931,46.0442 C287.163575,46.0442 284.370834,45.0562 281.802958,43.1272 L279.371606,46.8052 C282.346046,49.1392 286.081413,50.3502 289.459405,50.3502 C294.415467,50.3502 298.287359,47.8832 298.287359,42.9032 L298.287359,42.8132 C298.287359,38.5502 294.370293,36.9802 290.90095,35.9042" id="Fill-14" fill="#FFFFFF" mask="url(#mask-2)"></path>
                <polygon id="Fill-15" fill="#FFFFFF" mask="url(#mask-2)" points="346.69956 49.9013 346.69956 18.4973 340.797861 18.4973 331.204965 33.3473 321.612069 18.4973 315.713382 18.4973 315.713382 49.9013 321.164347 49.9013 321.164347 27.4683 331.027282 42.1853 331.204965 42.1853 341.159251 27.3803 341.159251 49.9013"></polygon>
                <path d="M361.420278,46.3124 C358.852402,46.3124 356.82661,45.0564 356.82661,42.8134 L356.82661,42.7234 C356.82661,40.3004 358.852402,38.9104 362.277575,38.9104 C364.394718,38.9104 366.331166,39.3144 367.724525,39.8524 L367.724525,41.3324 C367.724525,44.2934 365.023135,46.3124 361.420278,46.3124 L361.420278,46.3124 Z M372.994795,49.9014 L372.994795,35.8594 C372.994795,29.5334 369.572633,25.8544 362.54661,25.8544 C358.674718,25.8544 356.105838,26.6624 353.493792,27.8294 L354.979506,32.1804 C357.140819,31.2824 359.125452,30.7004 361.781668,30.7004 C365.563212,30.7004 367.635181,32.4934 367.635181,35.7694 L367.635181,36.3524 C365.789081,35.7694 363.943985,35.3654 361.0619,35.3654 C355.521591,35.3654 351.42383,37.8784 351.42383,42.9924 L351.42383,43.0824 C351.42383,47.8374 355.385066,50.3954 359.890394,50.3954 C363.492247,50.3954 365.968772,48.9154 367.591012,46.9864 L367.591012,49.9014 L372.994795,49.9014 Z" id="Fill-16" fill="#FFFFFF" mask="url(#mask-2)"></path>
                <path d="M387.9461,35.9042 C385.156371,35.0072 382.58749,34.2892 382.58749,32.5832 L382.58749,32.4932 C382.58749,31.1032 383.80417,30.1172 385.920309,30.1172 C387.901931,30.1172 390.333282,30.9692 392.632124,32.3592 L394.793436,28.5012 C392.270734,26.8412 389.028263,25.8102 386.054826,25.8102 C381.327645,25.8102 377.588263,28.5472 377.588263,33.0322 L377.588263,33.1222 C377.588263,37.6542 381.505328,39.0902 385.019846,40.0762 C387.812587,40.9282 390.333282,41.5562 390.333282,43.3962 L390.333282,43.4852 C390.333282,45.0562 388.984093,46.0442 386.641081,46.0442 C384.20973,46.0442 381.415985,45.0562 378.848108,43.1272 L376.416757,46.8052 C379.391197,49.1392 383.127568,50.3502 386.504556,50.3502 C391.460618,50.3502 395.33251,47.8832 395.33251,42.9032 L395.33251,42.8132 C395.33251,38.5502 391.415444,36.9802 387.9461,35.9042" id="Fill-17" fill="#FFFFFF" mask="url(#mask-2)"></path>
                <polygon id="Fill-18" fill="#FFFFFF" mask="url(#mask-2)" points="399.834826 22.58 405.689344 22.58 405.689344 17.419 399.834826 17.419"></polygon>
                <polygon id="Fill-19" fill="#FFFFFF" mask="url(#mask-2)" points="400.059691 49.901 405.507645 49.901 405.507645 26.213 400.059691 26.213"></polygon>
                <polygon id="Fill-20" fill="#FFFFFF" mask="url(#mask-2)" points="433.745251 49.9013 423.97166 35.8593 433.431042 26.2133 426.809575 26.2133 416.946641 36.7123 416.946641 17.1503 411.495676 17.1503 411.495676 49.9013 416.946641 49.9013 416.946641 43.1273 420.279459 39.6723 427.441004 49.9013"></polygon>
                <path d="M439.598865,38.0576 C439.598865,33.8846 442.389598,30.4756 446.758402,30.4756 C451.037861,30.4756 454.055467,33.9296 454.055467,38.1476 C454.055467,42.3206 451.262726,45.7296 446.849753,45.7296 C442.615467,45.7296 439.598865,42.2746 439.598865,38.0576 M459.503421,38.0576 C459.503421,31.2386 454.144811,25.7196 446.849753,25.7196 C439.551683,25.7196 434.148903,31.3286 434.148903,38.1476 C434.148903,44.9206 439.507514,50.4396 446.758402,50.4396 C454.099637,50.4396 459.503421,44.8326 459.503421,38.0576" id="Fill-21" fill="#FFFFFF" mask="url(#mask-2)"></path>
                <path d="M485.264703,49.9013 L485.264703,34.8273 C485.264703,29.3093 482.156749,25.7193 476.798139,25.7193 C473.103931,25.7193 470.89644,27.6493 469.366556,29.8923 L469.366556,26.2133 L463.915591,26.2133 L463.915591,49.9013 L469.366556,49.9013 L469.366556,36.5323 C469.366556,32.8543 471.573042,30.6543 474.725166,30.6543 C477.968641,30.6543 479.813737,32.7633 479.813737,36.4433 L479.813737,49.9013 L485.264703,49.9013 Z" id="Fill-22" fill="#FFFFFF" mask="url(#mask-2)"></path>
                <polygon id="Fill-23" fill="#FFFFFF" mask="url(#mask-2)" points="491.027568 49.901 496.475521 49.901 496.475521 26.213 491.027568 26.213"></polygon>
                <polygon id="Fill-24" fill="#FFFFFF" mask="url(#mask-2)" points="490.801699 22.58 496.655212 22.58 496.655212 17.419 490.801699 17.419"></polygon>
                <path d="M512.055243,35.9042 C509.26451,35.0072 506.696633,34.2892 506.696633,32.5832 L506.696633,32.4932 C506.696633,31.1032 507.912309,30.1172 510.029452,30.1172 C512.010069,30.1172 514.442425,30.9692 516.740263,32.3592 L518.901575,28.5012 C516.378873,26.8412 513.137405,25.8102 510.162965,25.8102 C505.435784,25.8102 501.697405,28.5472 501.697405,33.0322 L501.697405,33.1222 C501.697405,37.6542 505.614471,39.0902 509.127985,40.0762 C511.92173,40.9282 514.442425,41.5562 514.442425,43.3962 L514.442425,43.4852 C514.442425,45.0562 513.090224,46.0442 510.750224,46.0442 C508.317869,46.0442 505.525127,45.0562 502.957251,43.1272 L500.5259,46.8052 C503.50034,49.1392 507.235707,50.3502 510.613699,50.3502 C515.568757,50.3502 519.441653,47.8832 519.441653,42.9032 L519.441653,42.8132 C519.441653,38.5502 515.524587,36.9802 512.055243,35.9042" id="Fill-25" fill="#FFFFFF" mask="url(#mask-2)"></path>
                <polygon id="Fill-26" fill="#FFFFFF" mask="url(#mask-2)" points="156.282587 64.7226 156.282587 66.9956 161.398263 66.9956 161.398263 69.1326 156.282587 69.1326 156.282587 73.2676 153.923514 73.2676 153.923514 62.5866 162.087915 62.5866 162.087915 64.7226"></polygon>
                <path d="M173.043351,73.4355 C170.163274,73.4355 168.401498,71.8325 168.401498,68.6905 L168.401498,62.5865 L170.761575,62.5865 L170.761575,68.6285 C170.761575,70.3685 171.633931,71.2685 173.073467,71.2685 C174.514008,71.2685 175.386363,70.3995 175.386363,68.7055 L175.386363,62.5865 L177.74644,62.5865 L177.74644,68.6135 C177.74644,71.8485 175.923429,73.4355 173.043351,73.4355" id="Fill-27" fill="#FFFFFF" mask="url(#mask-2)"></path>
                <polygon id="Fill-28" fill="#FFFFFF" mask="url(#mask-2)" points="184.749475 73.2675 184.749475 62.5865 187.108548 62.5865 187.108548 71.1315 192.454108 71.1315 192.454108 73.2675"></polygon>
                <polygon id="Fill-29" fill="#FFFFFF" mask="url(#mask-2)" points="198.829529 73.2675 198.829529 62.5865 201.188602 62.5865 201.188602 71.1315 206.534162 71.1315 206.534162 73.2675"></polygon>
                <polygon id="Fill-30" fill="#FFFFFF" mask="url(#mask-2)" points="211.775521 69.652 216.493668 69.652 216.493668 67.424 211.775521 67.424"></polygon>
                <path d="M226.957714,73.4199 C225.334471,73.4199 223.695166,72.8559 222.408216,71.7109 L223.802579,70.0479 C224.76729,70.8419 225.778178,71.3449 227.003892,71.3449 C227.968602,71.3449 228.550842,70.9639 228.550842,70.3379 L228.550842,70.3079 C228.550842,69.7119 228.183429,69.4069 226.391537,68.9489 C224.231228,68.3999 222.837869,67.8049 222.837869,65.6839 L222.837869,65.6529 C222.837869,63.7159 224.399876,62.4339 226.590301,62.4339 C228.152309,62.4339 229.485436,62.9219 230.572618,63.7919 L229.346903,65.5619 C228.398255,64.9049 227.46366,64.5089 226.560185,64.5089 C225.655707,64.5089 225.18088,64.9209 225.18088,65.4399 L225.18088,65.4709 C225.18088,66.1719 225.640649,66.4009 227.493776,66.8739 C229.669143,67.4389 230.894857,68.2169 230.894857,70.0779 L230.894857,70.1089 C230.894857,72.2299 229.27061,73.4199 226.957714,73.4199" id="Fill-31" fill="#FFFFFF" mask="url(#mask-2)"></path>
                <polygon id="Fill-32" fill="#FFFFFF" mask="url(#mask-2)" points="242.173035 64.7529 242.173035 73.2679 239.813961 73.2679 239.813961 64.7529 236.551413 64.7529 236.551413 62.5869 245.435583 62.5869 245.435583 64.7529"></polygon>
                <path d="M255.19522,65.3329 L253.770741,68.7969 L256.619699,68.7969 L255.19522,65.3329 Z M258.441707,73.2679 L257.461938,70.8719 L252.927498,70.8719 L251.94773,73.2679 L249.542479,73.2679 L254.137151,62.5099 L256.312517,62.5099 L260.908193,73.2679 L258.441707,73.2679 Z" id="Fill-33" fill="#FFFFFF" mask="url(#mask-2)"></path>
                <path d="M271.49722,73.4501 C268.342085,73.4501 265.998069,71.0241 265.998069,67.9581 L265.998069,67.9271 C265.998069,64.8901 268.296911,62.4031 271.589575,62.4031 C273.611351,62.4031 274.822008,63.0751 275.817838,64.0521 L274.317066,65.7751 C273.48888,65.0281 272.646641,64.5701 271.574517,64.5701 C269.766564,64.5701 268.464556,66.0651 268.464556,67.8961 L268.464556,67.9271 C268.464556,69.7581 269.736448,71.2841 271.574517,71.2841 C272.800232,71.2841 273.550116,70.7961 274.393359,70.0321 L275.894131,71.5431 C274.790888,72.7181 273.566178,73.4501 271.49722,73.4501" id="Fill-34" fill="#FFFFFF" mask="url(#mask-2)"></path>
                <polygon id="Fill-35" fill="#FFFFFF" mask="url(#mask-2)" points="289.300093 73.2675 285.975305 68.7205 284.735537 70.0015 284.735537 73.2675 282.377467 73.2675 282.377467 62.5865 284.735537 62.5865 284.735537 67.2555 289.085266 62.5865 291.935228 62.5865 287.568432 67.1185 292.133992 73.2675"></polygon>
                <polygon id="Fill-36" fill="#FFFFFF" mask="url(#mask-2)" points="328.322178 73.3437 326.269282 73.3437 323.849977 66.3557 321.429668 73.3437 319.376772 73.3437 315.715691 62.5867 318.243413 62.5867 320.464958 69.8197 322.869205 62.5557 324.890981 62.5557 327.296232 69.8197 329.516772 62.5867 331.983259 62.5867"></polygon>
                <polygon id="Fill-37" fill="#FFFFFF" mask="url(#mask-2)" points="338.328463 73.2675 338.328463 62.5865 346.416571 62.5865 346.416571 64.6765 340.672479 64.6765 340.672479 66.8435 345.726919 66.8435 345.726919 68.9345 340.672479 68.9345 340.672479 71.1765 346.493869 71.1765 346.493869 73.2675"></polygon>
                <path d="M359.961467,70.0175 C359.961467,69.2995 359.425405,68.8575 358.215753,68.8575 L355.488263,68.8575 L355.488263,71.2075 L358.292046,71.2075 C359.33305,71.2075 359.961467,70.8415 359.961467,70.0475 L359.961467,70.0175 Z M359.363166,65.7455 C359.363166,65.0425 358.812046,64.6465 357.816216,64.6465 L355.488263,64.6465 L355.488263,66.9045 L357.663629,66.9045 C358.705637,66.9045 359.363166,66.5695 359.363166,65.7755 L359.363166,65.7455 Z M358.292046,73.2675 L353.190425,73.2675 L353.190425,62.5865 L358.169575,62.5865 C360.358996,62.5865 361.707181,63.6695 361.707181,65.3485 L361.707181,65.3785 C361.707181,66.5835 361.06471,67.2555 360.297761,67.6825 C361.538533,68.1565 362.304479,68.8725 362.304479,70.3075 L362.304479,70.3375 C362.304479,72.2905 360.711351,73.2675 358.292046,73.2675 L358.292046,73.2675 Z" id="Fill-38" fill="#FFFFFF" mask="url(#mask-2)"></path>
                <path d="M394.647676,67.9267 C394.647676,66.0347 393.345668,64.7067 391.415243,64.7067 L389.593236,64.7067 L389.593236,71.1467 L391.415243,71.1467 C393.345668,71.1467 394.647676,69.8497 394.647676,67.9577 L394.647676,67.9267 Z M391.415243,73.2677 L387.233158,73.2677 L387.233158,62.5867 L391.415243,62.5867 C394.786208,62.5867 397.114162,64.8907 397.114162,67.8967 L397.114162,67.9267 C397.114162,70.9327 394.786208,73.2677 391.415243,73.2677 L391.415243,73.2677 Z" id="Fill-39" fill="#FFFFFF" mask="url(#mask-2)"></path>
                <polygon id="Fill-40" fill="#FFFFFF" mask="url(#mask-2)" points="403.810819 73.2675 403.810819 62.5865 411.898927 62.5865 411.898927 64.6765 406.154834 64.6765 406.154834 66.8435 411.209274 66.8435 411.209274 68.9345 406.154834 68.9345 406.154834 71.1765 411.976224 71.1765 411.976224 73.2675"></polygon>
                <polygon id="Fill-41" fill="#FFFFFF" mask="url(#mask-2)" points="424.172332 73.3437 422.08932 73.3437 417.753645 62.5867 420.35766 62.5867 423.161444 70.1097 425.964224 62.5867 428.507004 62.5867"></polygon>
                <polygon id="Fill-42" fill="#FFFFFF" mask="url(#mask-2)" points="434.759954 73.2675 434.759954 62.5865 442.848062 62.5865 442.848062 64.6765 437.103969 64.6765 437.103969 66.8435 442.158409 66.8435 442.158409 68.9345 437.103969 68.9345 437.103969 71.1765 442.925359 71.1765 442.925359 73.2675"></polygon>
                <polygon id="Fill-43" fill="#FFFFFF" mask="url(#mask-2)" points="449.621815 73.2675 449.621815 62.5865 451.981892 62.5865 451.981892 71.1315 457.327452 71.1315 457.327452 73.2675"></polygon>
                <path d="M471.543931,67.9267 C471.543931,66.0957 470.196749,64.5707 468.297444,64.5707 C466.397135,64.5707 465.081073,66.0657 465.081073,67.8967 L465.081073,67.9267 C465.081073,69.7577 466.428255,71.2837 468.32756,71.2837 C470.226865,71.2837 471.543931,69.7877 471.543931,67.9577 L471.543931,67.9267 Z M468.297444,73.4497 C464.988718,73.4497 462.613583,70.9937 462.613583,67.9577 L462.613583,67.9267 C462.613583,64.8907 465.018834,62.4037 468.32756,62.4037 C471.636286,62.4037 474.010417,64.8607 474.010417,67.8967 L474.010417,67.9267 C474.010417,70.9637 471.60617,73.4497 468.297444,73.4497 L468.297444,73.4497 Z" id="Fill-44" fill="#FFFFFF" mask="url(#mask-2)"></path>
                <path d="M486.803822,66.3251 C486.803822,65.2721 486.068996,64.7071 484.889459,64.7071 L483.066448,64.7071 L483.066448,67.9721 L484.935637,67.9721 C486.11417,67.9721 486.803822,67.2701 486.803822,66.3551 L486.803822,66.3251 Z M484.859344,70.0631 L483.066448,70.0631 L483.066448,73.2671 L480.708378,73.2671 L480.708378,62.5871 L485.088224,62.5871 C487.647066,62.5871 489.194015,64.0961 489.194015,66.2791 L489.194015,66.3091 C489.194015,68.7811 487.263591,70.0631 484.859344,70.0631 L484.859344,70.0631 Z" id="Fill-45" fill="#FFFFFF" mask="url(#mask-2)"></path>
                <polygon id="Fill-46" fill="#FFFFFF" mask="url(#mask-2)" points="495.538618 73.2675 495.538618 62.5865 503.626726 62.5865 503.626726 64.6765 497.882633 64.6765 497.882633 66.8435 502.937073 66.8435 502.937073 68.9345 497.882633 68.9345 497.882633 71.1765 503.704023 71.1765 503.704023 73.2675"></polygon>
                <path d="M516.956896,66.2333 C516.956896,65.2263 516.252185,64.7073 515.102764,64.7073 L512.759753,64.7073 L512.759753,67.7743 L515.148942,67.7743 C516.298363,67.7743 516.956896,67.1643 516.956896,66.2633 L516.956896,66.2333 Z M516.910718,73.2673 L514.61288,69.8493 L512.759753,69.8493 L512.759753,73.2673 L510.40068,73.2673 L510.40068,62.5873 L515.302533,62.5873 C517.830255,62.5873 519.347089,63.9143 519.347089,66.1113 L519.347089,66.1413 C519.347089,67.8663 518.41149,68.9493 517.049251,69.4533 L519.668324,73.2673 L516.910718,73.2673 Z" id="Fill-47" fill="#FFFFFF" mask="url(#mask-2)"></path>
            </g>
        </g>
    </g>
</svg>
